<?xml version="1.0" encoding="utf-8"?>
<!-- Generator: Adobe Illustrator 18.1.1, SVG Export Plug-In . SVG Version: 6.00 Build 0)  -->
<svg version="1.1" id="Layer_1" xmlns="http://www.w3.org/2000/svg" xmlns:xlink="http://www.w3.org/1999/xlink" x="0px" y="0px"
	 viewBox="0 0 480 480" enable-background="new 0 0 480 480" xml:space="preserve">
<path d="M159.3,72.7l-25.2-30l-90,75.5l25.2,30C69.3,148.2,159.3,72.7,159.3,72.7z M435.9,118.3l-90-75.5l-25.2,30l90,75.5
	L435.9,118.3z M239.9,84.7c-97.5,0-176.2,78.9-176.2,176.3s78.8,176.3,176.2,176.3S416.3,358.3,416.3,261S337.4,84.7,239.9,84.7z
	 M240,398.1c-75.7,0-137.1-61.4-137.1-137.1S164.3,123.8,240,123.8S377.1,185.2,377.1,261S315.8,398.1,240,398.1z M309.3,219.4
	l-27.7-27.7L240,233.3l-41.6-41.6l-27.7,27.7l41.6,41.6l-41.6,41.6l27.7,27.7l41.6-41.6l41.6,41.6l27.7-27.7L267.7,261L309.3,219.4z
	"/>
</svg>
