<?xml version="1.0" encoding="utf-8"?>
<!-- Generator: Adobe Illustrator 18.1.1, SVG Export Plug-In . SVG Version: 6.00 Build 0)  -->
<svg version="1.1" id="Layer_1" xmlns="http://www.w3.org/2000/svg" xmlns:xlink="http://www.w3.org/1999/xlink" x="0px" y="0px"
	 viewBox="0 0 480 480" enable-background="new 0 0 480 480" xml:space="preserve">
<path fill="#FFFFFF" d="M16.4,239c0,106.4,86.3,192.8,192.9,192.8c53.2,0,101.3-21.6,136.1-56.5l-30.3-30.3
	c-27.1,27.1-64.5,44-105.9,44c-82.8,0-149.9-67.1-149.9-149.9S126.4,89.1,209.2,89.1S359.1,156.2,359.1,239h-64.2l86.4,86.5l1.5-3.1
	l83.4-83.4h-64.2c0-106.4-86.1-192.8-192.6-192.8S16.4,132.6,16.4,239z M198.5,153.3v91l-75,44.4l15.4,26l91.7-54.4V153.3H198.5z"/>
</svg>
