<?xml version="1.0" encoding="utf-8"?>
<!-- Generator: Adobe Illustrator 18.1.1, SVG Export Plug-In . SVG Version: 6.00 Build 0)  -->
<svg version="1.1" id="Layer_1" xmlns="http://www.w3.org/2000/svg" xmlns:xlink="http://www.w3.org/1999/xlink" x="0px" y="0px"
	 viewBox="0 0 466 477" enable-background="new 0 0 466 477" xml:space="preserve">
<path fill="none" d="M-255,257h560v560h-560V257z"/>
<path fill="#FFFFFF" d="M407.8,262.3c1.2-7,1.2-15.2,1.2-23.3s-1.2-15.2-1.2-23.3l49-38.5c4.7-3.5,5.8-9.3,2.3-15.2l-46.7-80.5
	c-2.3-4.7-9.3-7-14-4.7l-58.3,23.3c-11.7-9.3-25.7-17.5-39.7-23.3L291.2,15c-1.2-5.8-5.8-9.3-11.7-9.3h-93.3
	c-5.8,0-10.5,4.7-11.7,9.3l-9.3,61.8c-14,5.8-28,14-39.7,23.3L67.2,76.8c-4.7-2.3-11.7,0-14,4.7L6.5,162c-2.3,4.7-1.2,11.7,2.3,15.2
	l49,38.5c-1.2,7-1.2,15.2-1.2,23.3s1.2,15.2,1.2,23.3l-49,38.5c-4.7,3.5-5.8,9.3-2.3,15.2l46.7,80.5c2.3,4.7,9.3,7,14,4.7l58.3-23.3
	c11.7,9.3,25.7,17.5,39.7,23.3l9.3,61.8c1.2,5.8,5.8,9.3,11.7,9.3h93.3c5.8,0,10.5-4.7,11.7-9.3l9.3-61.8c14-5.8,28-14,39.7-23.3
	l58.3,23.3c4.7,2.3,11.7,0,14-4.7l46.7-80.5c2.3-4.7,1.2-11.7-2.3-15.2L407.8,262.3z M234,320.7c-45.5,0-81.7-36.2-81.7-81.7
	s36.2-81.7,81.7-81.7s81.7,36.2,81.7,81.7S279.5,320.7,234,320.7z"/>
</svg>
