<?xml version="1.0" encoding="utf-8"?>
<!-- Generator: Adobe Illustrator 18.1.1, SVG Export Plug-In . SVG Version: 6.00 Build 0)  -->
<svg version="1.1" id="Layer_1" xmlns="http://www.w3.org/2000/svg" xmlns:xlink="http://www.w3.org/1999/xlink" x="0px" y="0px"
	 viewBox="0 0 480 480" enable-background="new 0 0 480 480" xml:space="preserve">
<path d="M404.6,259.9c0.9-7.1,1.6-14.4,1.6-21.8c0-7.4-0.7-14.6-1.6-21.8l47.2-36.9c4.2-3.3,5.5-9.4,2.7-14.3l-44.6-77.3
	c-2.8-4.8-8.6-6.8-13.6-4.8l-55.6,22.4c-11.5-8.8-24.1-16.3-37.7-22l-8.4-59.1c-1-5.2-5.6-9.4-11.2-9.4h-89.3
	c-5.6,0-10.2,4.1-11,9.4l-8.4,59.1c-13.6,5.7-26.2,13.1-37.7,22L81.5,83.1c-5-1.9-10.8,0-13.6,4.8l-44.6,77.3
	c-2.8,4.8-1.6,10.8,2.7,14.3L73,216.4c-0.9,7.1-1.6,14.4-1.6,21.8c0,7.4,0.7,14.6,1.6,21.8l-47.1,36.9c-4.2,3.3-5.5,9.4-2.7,14.3
	l44.6,77.3c2.8,4.8,8.6,6.8,13.6,4.8l55.6-22.4c11.5,8.8,24.1,16.3,37.7,22l8.4,59.1c0.9,5.2,5.5,9.4,11,9.4h89.3
	c5.6,0,10.2-4.1,11-9.4l8.4-59.1c13.6-5.7,26.2-13.1,37.7-22l55.6,22.4c5,1.9,10.8,0,13.6-4.8l44.6-77.3c2.8-4.8,1.6-10.8-2.7-14.3
	L404.6,259.9z M238.8,316.3c-43.2,0-78.1-34.9-78.1-78.1s34.9-78.1,78.1-78.1s78.1,34.9,78.1,78.1S282,316.3,238.8,316.3z"/>
</svg>
