<?xml version="1.0" encoding="utf-8"?>
<!-- Generator: Adobe Illustrator 18.1.1, SVG Export Plug-In . SVG Version: 6.00 Build 0)  -->
<svg version="1.1" id="Layer_1" xmlns="http://www.w3.org/2000/svg" xmlns:xlink="http://www.w3.org/1999/xlink" x="0px" y="0px"
	 viewBox="0 0 480 480" enable-background="new 0 0 480 480" xml:space="preserve">
<path d="M363.5,168h-20.6v-41.2C342.9,70,296.8,23.9,240,23.9S137.1,70,137.1,126.8V168h-20.6c-22.7,0-41.2,18.4-41.2,41.2V415
	c0,22.7,18.4,41.2,41.2,41.2h247c22.7,0,41.2-18.4,41.2-41.2V209.1C404.7,186.4,386.2,168,363.5,168z M240,353.2
	c-22.7,0-41.2-18.4-41.2-41.2c0-22.7,18.4-41.2,41.2-41.2s41.2,18.4,41.2,41.2C281.2,334.8,262.7,353.2,240,353.2z M303.8,168H176.2
	v-41.2c0-35.2,28.6-63.8,63.8-63.8s63.8,28.6,63.8,63.8V168z"/>
</svg>
