<?xml version="1.0" encoding="utf-8"?>
<!-- Generator: Adobe Illustrator 18.1.1, SVG Export Plug-In . SVG Version: 6.00 Build 0)  -->
<svg version="1.1" id="Layer_1" xmlns="http://www.w3.org/2000/svg" xmlns:xlink="http://www.w3.org/1999/xlink" x="0px" y="0px"
	 viewBox="0 0 386 500" enable-background="new 0 0 386 500" xml:space="preserve">
<path fill="none" d="M-255,257h560v560h-560V257z"/>
<path fill="#FFFFFF" d="M194,379.7c25.7,0,46.7-21,46.7-46.7s-21-46.7-46.7-46.7s-46.7,21-46.7,46.7S168.3,379.7,194,379.7z
	 M334,169.7h-23.3V123C310.7,58.8,258.2,6.3,194,6.3S77.3,58.8,77.3,123h44.3c0-39.7,32.7-72.3,72.3-72.3s72.3,32.7,72.3,72.3v46.7
	H54c-25.7,0-46.7,21-46.7,46.7v233.3c0,25.7,21,46.7,46.7,46.7h280c25.7,0,46.7-21,46.7-46.7V216.3
	C380.7,190.7,359.7,169.7,334,169.7z M334,449.7H54V216.3h280V449.7z"/>
</svg>
