<?xml version="1.0" encoding="utf-8"?>
<!-- Generator: Adobe Illustrator 18.1.1, SVG Export Plug-In . SVG Version: 6.00 Build 0)  -->
<svg version="1.1" id="Layer_1" xmlns="http://www.w3.org/2000/svg" xmlns:xlink="http://www.w3.org/1999/xlink" x="0px" y="0px"
	 viewBox="0 0 480 447" enable-background="new 0 0 480 447" xml:space="preserve">
<path fill="none" d="M-255,257h560v560h-560V257z"/>
<path fill="#FFFFFF" d="M237.9,191.2c-25.7,0-46.7,21-46.7,46.7s21,46.7,46.7,46.7s46.7-21,46.7-46.7S263.6,191.2,237.9,191.2z
	 M377.9,237.9c0-77-63-140-140-140s-140,63-140,140c0,51.3,28,96.8,70,121.3l23.3-40.8c-28-16.3-46.7-45.5-46.7-80.5
	c0-51.3,42-93.3,93.3-93.3s93.3,42,93.3,93.3c0,35-18.7,64.2-46.7,80.5l23.3,40.8C349.9,334.7,377.9,289.2,377.9,237.9z M237.9,4.6
	C109.6,4.6,4.6,109.6,4.6,237.9c0,86.3,46.7,161,116.7,201.8l23.3-40.8c-56-32.7-93.3-92.2-93.3-161c0-102.7,84-186.7,186.7-186.7
	s186.7,84,186.7,186.7c0,68.8-37.3,129.5-93.3,161l23.3,40.8c70-40.8,116.7-115.5,116.7-201.8C471.2,109.6,366.2,4.6,237.9,4.6z"/>
</svg>
