<?xml version="1.0" encoding="utf-8"?>
<!-- Generator: Adobe Illustrator 18.1.1, SVG Export Plug-In . SVG Version: 6.00 Build 0)  -->
<svg version="1.1" id="Layer_1" xmlns="http://www.w3.org/2000/svg" xmlns:xlink="http://www.w3.org/1999/xlink" x="0px" y="0px"
	 viewBox="0 0 480 480" enable-background="new 0 0 480 480" xml:space="preserve">
<path fill="#FFFFFF" d="M240.7,210.3c-24.1,0-43.7,19.5-43.7,43.7s19.5,43.7,43.7,43.7s43.7-19.5,43.7-43.7S264.8,210.3,240.7,210.3
	z M371.7,254c0-72.4-58.6-131-131-131s-131,58.6-131,131c0,48.5,26.3,90.6,65.4,113.3l22.1-38c-26.1-15.2-43.8-43-43.8-75.3
	c0-48.3,39.1-87.3,87.3-87.3S328,205.7,328,254c0,32.3-17.7,60.2-43.8,75.2l22.1,38C345.4,344.6,371.7,302.5,371.7,254z M240.7,35.6
	C120,35.6,22.3,133.3,22.3,254c0,80.7,43.9,151,109.1,188.8l21.8-37.8C101.1,374.8,66,318.5,66,254c0-96.5,78.2-174.7,174.7-174.7
	S415.4,157.5,415.4,254c0,64.5-35.2,120.9-87.2,151.1l21.8,37.8C415.1,405,459,334.7,459,254C459,133.3,361.2,35.6,240.7,35.6z"/>
</svg>
