<?xml version="1.0" encoding="utf-8"?>
<!-- Generator: Adobe Illustrator 18.1.1, SVG Export Plug-In . SVG Version: 6.00 Build 0)  -->
<svg version="1.1" id="Layer_1" xmlns="http://www.w3.org/2000/svg" xmlns:xlink="http://www.w3.org/1999/xlink" x="0px" y="0px"
	 viewBox="-455 257 48 38.7" enable-background="new -455 257 48 38.7" xml:space="preserve">
<g>
	<path fill="#AACF37" d="M-451.9,263.4l-1.6-0.8c-0.3-0.4-0.5-0.8-0.6-1.2c-0.1-0.4-0.1-0.9-0.1-1.4c0.3-1.3,1.1-2,2.4-2h41.5
		c1.4,0.2,2.2,1.2,2.4,2.8c-0.1,0.4-0.2,0.7-0.3,1c-0.1,0.3-0.3,0.6-0.6,0.9l-1.4,0.7H-451.9z"/>
	<path fill="#B8BABB" d="M-451.8,294.1c-0.3-0.1-0.7-0.2-1-0.4c-0.3-0.1-0.6-0.4-0.9-0.7l-0.5-1v-17.7c0.3-1.3,1.1-1.9,2.3-2h37.7
		l1.5,0.8c0.3,0.4,0.5,0.8,0.6,1.2c0.1,0.4,0.2,0.9,0.1,1.4l-0.7,1.2c-0.3,0.2-0.5,0.3-0.8,0.5c-0.3,0.1-0.6,0.3-0.9,0.4h-34.4v14.3
		c-0.2,0.4-0.4,0.7-0.6,1c-0.2,0.3-0.5,0.6-0.8,0.8L-451.8,294.1z"/>
</g>
</svg>
