<?xml version="1.0" encoding="utf-8"?>
<!-- Generator: Adobe Illustrator 18.1.1, SVG Export Plug-In . SVG Version: 6.00 Build 0)  -->
<svg version="1.1" id="Layer_1" xmlns="http://www.w3.org/2000/svg" xmlns:xlink="http://www.w3.org/1999/xlink" x="0px" y="0px"
	 viewBox="0 0 286.8 72.5" enable-background="new 0 0 286.8 72.5" xml:space="preserve">
<g>
	<path fill="#A9CF39" d="M8.4,11.2l-1.8-0.9C6.3,9.9,6.1,9.4,5.9,8.9c-0.1-0.5-0.2-1-0.1-1.6C6.2,5.8,7.1,5.1,8.6,5H56
		c1.6,0.3,2.5,1.3,2.8,3.2c-0.1,0.4-0.2,0.8-0.4,1.2c-0.2,0.4-0.4,0.7-0.7,1l-1.6,0.8H8.4z"/>
	<path fill="#BABBBC" d="M8.6,46.4c-0.4-0.1-0.8-0.3-1.1-0.4c-0.4-0.2-0.7-0.4-1-0.8L5.8,44V23.8c0.4-1.4,1.2-2.2,2.6-2.3h43.1
		l1.7,0.9c0.3,0.4,0.5,0.9,0.7,1.3c0.2,0.4,0.2,1,0.1,1.6l-0.8,1.4c-0.3,0.2-0.6,0.4-0.9,0.5c-0.3,0.2-0.7,0.3-1.1,0.4H11.9V44
		c-0.2,0.4-0.5,0.8-0.7,1.2c-0.3,0.4-0.6,0.6-1,0.9L8.6,46.4z"/>
	<path fill="#A9CF39" d="M73.6,46.4c-0.9-0.1-1.8-0.3-2.6-0.6c-0.8-0.3-1.6-0.6-2.4-1s-1.5-0.9-2.3-1.6c-0.5-0.5-0.9-1.1-1.3-1.7
		c-0.4-0.6-0.7-1.3-0.8-1.9c-0.2-0.7-0.4-1.4-0.6-2.1V14.5c0.4-1,0.9-1.7,1.4-1.9c0.5-0.3,0.9-0.4,1.3-0.4s0.7,0,1,0
		c1.3,0.3,2.1,1.1,2.3,2.3v21.9c0.1,0.3,0.1,0.7,0.2,1.1s0.2,0.7,0.5,1c0.3,0.3,0.5,0.5,0.8,0.8l2.2,0.9h24.2
		c0.3-0.1,0.6-0.1,0.9-0.2c0.3-0.1,0.6-0.2,0.8-0.5c0.3-0.3,0.5-0.5,0.7-0.7c0.2-0.3,0.4-0.6,0.5-0.8c0.2-0.3,0.3-0.6,0.3-0.9
		s0.1-0.7,0.3-1V14.3c0.2-0.2,0.3-0.4,0.4-0.8c0.1-0.3,0.4-0.6,0.8-0.9c0.4-0.3,1.2-0.5,2.5-0.5c1.4,0.4,2.1,1.2,2.3,2.3V37
		c-0.2,0.9-0.4,1.8-0.7,2.7c-0.3,0.9-0.7,1.7-1.2,2.5c-0.5,0.8-1.2,1.5-2,2.1c-0.5,0.4-1.1,0.8-1.7,1.1c-0.6,0.3-1.3,0.5-2,0.7
		c-0.7,0.2-1.4,0.3-2.1,0.4H73.6z"/>
	<path fill="#A9CF39" d="M116.9,46.4c-0.2-0.1-0.6-0.2-1.1-0.4c-0.5-0.1-1.1-0.8-1.6-2V14.5c0.2-1,0.5-1.6,0.8-1.7
		c0.3-0.2,0.7-0.3,1-0.4c0.3-0.1,0.7-0.2,1.2-0.2c0.5,0,1.2,0.2,2.1,0.8l32.5,24.3l-0.1-22.8c0.2-0.2,0.3-0.4,0.4-0.8
		c0.1-0.3,0.3-0.6,0.6-0.8c0.3-0.2,0.5-0.4,0.8-0.5c0.3-0.1,0.9-0.2,1.9-0.1c1.3,0.4,2.1,1.2,2.3,2.3v29.5c-0.8,2.5-2.4,3-4.8,1.6
		l-32.7-24.4V44C119.8,45.6,118.7,46.4,116.9,46.4z"/>
	<path fill="#A9CF39" d="M168.2,46.4c-0.2-0.1-0.5-0.2-0.8-0.2c-0.3,0-0.6-0.2-1-0.4s-0.7-0.8-1-1.7V14.5c0.3-1.4,1.1-2.2,2.3-2.3
		h32.1c0.8,0.2,1.6,0.5,2.5,0.7c0.8,0.3,1.6,0.6,2.3,1.1c0.7,0.5,1.4,1.1,2,1.8c0.4,0.5,0.8,1.1,1.1,1.6c0.3,0.6,0.6,1.2,0.8,1.8
		c0.2,0.6,0.4,1.2,0.5,1.8v16c-0.2,0.9-0.4,1.8-0.7,2.7c-0.3,0.9-0.7,1.7-1.2,2.5c-0.5,0.8-1.2,1.5-2,2.1c-0.5,0.4-1.1,0.8-1.7,1.1
		c-0.6,0.3-1.3,0.5-2,0.7c-0.7,0.2-1.4,0.3-2.1,0.4H168.2z M201,39.6c0.4-0.3,0.8-0.7,1-1c0.3-0.4,0.4-0.8,0.5-1.3
		c0.1-0.5,0.2-0.9,0.3-1.3V22.4c-0.1-0.3-0.2-0.7-0.3-1c-0.1-0.4-0.2-0.7-0.3-1.1c-0.2-0.4-0.4-0.6-0.6-0.8
		c-0.3-0.2-0.6-0.4-0.9-0.6c-0.3-0.2-0.6-0.3-0.9-0.4s-0.7-0.1-1-0.2h-27.4v22h27.9L201,39.6z"/>
	<path fill="#B9BBBD" d="M219.4,46.4c-0.4-0.1-0.8-0.3-1.2-0.5c-0.4-0.2-0.8-0.5-1.1-0.9l-0.5-0.9V7.3l0.8-1.3
		c0.3-0.3,0.7-0.5,1.2-0.7c0.5-0.2,0.9-0.2,1.3-0.2c0.4,0.1,0.8,0.2,1.2,0.4c0.4,0.2,0.7,0.4,1,0.9l0.6,1.2v36.4
		C222.2,45.4,221.1,46.3,219.4,46.4z"/>
	<path fill="#B9BBBD" d="M254.8,46.4c-0.9-0.1-1.6-0.5-2.2-1.2l-0.6-1.2V11.2h-20.8c-1.2-0.4-2.1-1.1-2.6-2.3V7.3
		c0.7-1.4,1.6-2.2,2.8-2.3h47.5c1.7,0.3,2.6,1.4,2.8,3.2c-0.1,0.8-0.4,1.5-1.1,2.2l-1.6,0.8H258V44l-0.8,1.4
		C256.5,46.1,255.7,46.4,254.8,46.4z"/>
	<g>
		<path fill="#707071" d="M4.8,66.6l2.9-7.9h1.6l2.9,7.9h-1.5l-0.8-2.2H7.1l-0.8,2.2H4.8z M7.4,63.2h2c-0.6-2.1-1-3.1-1-3.2
			L7.4,63.2z"/>
		<path fill="#707071" d="M19.2,66.6v-7.9h2.3c0.7,0,1.3,0.1,1.8,0.2c0.5,0.2,1,0.4,1.4,0.7c0.4,0.3,0.7,0.7,0.9,1.2
			c0.2,0.5,0.3,1.1,0.3,1.7c0,1.3-0.4,2.2-1.1,2.9s-1.8,1-3.2,1H19.2z M20.7,65.4h1c0.9,0,1.6-0.2,2.1-0.7s0.7-1.2,0.7-2.1
			c0-1-0.2-1.7-0.7-2.1s-1.2-0.7-2.2-0.7h-0.9V65.4z"/>
		<path fill="#707071" d="M35.4,66.6l-2.9-7.9H34l1.7,4.9c0.1,0.2,0.2,0.7,0.4,1.5c0-0.1,0.1-0.3,0.2-0.7c0.1-0.4,0.2-0.7,0.2-0.8
			c0-0.1,0.3-0.9,0.8-2.4s0.8-2.3,0.8-2.4h1.5l-2.8,7.9H35.4z"/>
		<path fill="#707071" d="M45.4,66.6l2.9-7.9h1.6l2.9,7.9h-1.5l-0.8-2.2h-2.8l-0.8,2.2H45.4z M48,63.2h2c-0.6-2.1-1-3.1-1-3.2
			L48,63.2z"/>
		<path fill="#707071" d="M59.8,66.6v-7.9h1.5c0.3,0.4,0.8,1.3,1.7,2.6c0.9,1.3,1.4,2.1,1.6,2.4c0.1,0.1,0.1,0.2,0.3,0.4
			c0.1,0.2,0.2,0.3,0.3,0.4c0-1.2,0-1.9,0-1.9v-4h1.3v7.9h-1.6L61.3,61l-0.3-0.4c0,0.9,0,1.6,0,2v4H59.8z"/>
		<path fill="#707071" d="M77.9,66.7c-1.1,0-2.1-0.4-2.7-1.1c-0.7-0.7-1-1.7-1-3c0-1.2,0.4-2.2,1.1-2.9c0.7-0.7,1.6-1.1,2.8-1.1
			c0.9,0,1.7,0.2,2.3,0.6l-0.5,1.1c-0.6-0.4-1.2-0.6-1.8-0.6c-0.7,0-1.3,0.3-1.7,0.8c-0.4,0.5-0.6,1.2-0.6,2.1
			c0,0.9,0.2,1.6,0.6,2.1c0.4,0.5,1,0.7,1.7,0.7c0.7,0,1.3-0.2,2-0.5l0.2,1.1C79.5,66.5,78.8,66.7,77.9,66.7z"/>
		<path fill="#707071" d="M87.8,66.6v-7.9h1.5v7.9H87.8z"/>
		<path fill="#707071" d="M97.3,66.6v-7.9h1.5c0.3,0.4,0.8,1.3,1.7,2.6c0.9,1.3,1.4,2.1,1.6,2.4c0.1,0.1,0.1,0.2,0.3,0.4
			c0.1,0.2,0.2,0.3,0.3,0.4c0-1.2,0-1.9,0-1.9v-4h1.3v7.9h-1.6L98.8,61l-0.3-0.4c0,0.9,0,1.6,0,2v4H97.3z"/>
		<path fill="#707071" d="M115.5,66.7c-1.2,0-2.1-0.4-2.8-1.1c-0.7-0.7-1-1.7-1-3c0-0.8,0.2-1.5,0.5-2.1c0.3-0.6,0.8-1.1,1.4-1.4
			c0.6-0.3,1.3-0.5,2.2-0.5c1,0,1.8,0.2,2.5,0.6l-0.5,1.1c-0.7-0.4-1.3-0.5-2-0.5c-0.8,0-1.4,0.3-1.9,0.8s-0.7,1.2-0.7,2.1
			c0,0.9,0.2,1.6,0.6,2.1s1,0.8,1.8,0.8c0.5,0,1-0.1,1.4-0.2v-1.8h-1.6l0-1.1h3v3.8c-0.5,0.2-0.9,0.3-1.4,0.4
			C116.5,66.6,116,66.7,115.5,66.7z"/>
		<path fill="#707071" d="M135.4,66.6v-7.9h1.5v7.9H135.4z"/>
		<path fill="#707071" d="M144.9,66.6v-7.9h1.5c0.3,0.4,0.8,1.3,1.7,2.6c0.9,1.3,1.4,2.1,1.6,2.4c0.1,0.1,0.1,0.2,0.3,0.4
			c0.1,0.2,0.2,0.3,0.3,0.4c0-1.2,0-1.9,0-1.9v-4h1.3v7.9H150l-3.6-5.5l-0.3-0.4c0,0.9,0,1.6,0,2v4H144.9z"/>
		<path fill="#707071" d="M159.6,66.6v-7.9h1.5c0.3,0.4,0.8,1.3,1.7,2.6c0.9,1.3,1.4,2.1,1.6,2.4c0.1,0.1,0.1,0.2,0.3,0.4
			c0.1,0.2,0.2,0.3,0.3,0.4c0-1.2,0-1.9,0-1.9v-4h1.3v7.9h-1.6l-3.6-5.5l-0.3-0.4c0,0.9,0,1.6,0,2v4H159.6z"/>
		<path fill="#707071" d="M177.8,66.7c-1.2,0-2.1-0.4-2.8-1.1s-1-1.7-1-3c0-1.3,0.3-2.3,1-3c0.7-0.7,1.6-1.1,2.8-1.1
			s2.1,0.4,2.8,1.1c0.7,0.7,1,1.7,1,3c0,1.3-0.3,2.2-1,3S178.9,66.7,177.8,66.7z M176,64.7c0.4,0.5,1,0.7,1.7,0.7s1.3-0.2,1.7-0.7
			s0.6-1.2,0.6-2.1c0-0.9-0.2-1.6-0.6-2.1c-0.4-0.5-1-0.8-1.7-0.8c-0.8,0-1.3,0.3-1.7,0.8c-0.4,0.5-0.6,1.2-0.6,2.1
			C175.4,63.5,175.6,64.2,176,64.7z"/>
		<path fill="#707071" d="M191,66.6l-2.9-7.9h1.5l1.7,4.9c0.1,0.2,0.2,0.7,0.4,1.5c0-0.1,0.1-0.3,0.2-0.7c0.1-0.4,0.2-0.7,0.2-0.8
			c0-0.1,0.3-0.9,0.8-2.4s0.8-2.3,0.8-2.4h1.5l-2.8,7.9H191z"/>
		<path fill="#707071" d="M201,66.6l2.9-7.9h1.6l2.9,7.9h-1.5l-0.8-2.2h-2.8l-0.8,2.2H201z M203.7,63.2h2c-0.6-2.1-1-3.1-1-3.2
			L203.7,63.2z"/>
		<path fill="#707071" d="M216.5,66.6v-6.7h-2.3v-1.2h6v1.2H218v6.7H216.5z"/>
		<path fill="#707071" d="M227.5,66.6v-7.9h1.5v7.9H227.5z"/>
		<path fill="#707071" d="M240.6,66.7c-1.2,0-2.1-0.4-2.8-1.1s-1-1.7-1-3c0-1.3,0.3-2.3,1-3c0.7-0.7,1.6-1.1,2.8-1.1
			s2.1,0.4,2.8,1.1c0.7,0.7,1,1.7,1,3c0,1.3-0.3,2.2-1,3S241.8,66.7,240.6,66.7z M238.8,64.7c0.4,0.5,1,0.7,1.7,0.7s1.3-0.2,1.7-0.7
			s0.6-1.2,0.6-2.1c0-0.9-0.2-1.6-0.6-2.1c-0.4-0.5-1-0.8-1.7-0.8c-0.8,0-1.3,0.3-1.7,0.8c-0.4,0.5-0.6,1.2-0.6,2.1
			C238.3,63.5,238.5,64.2,238.8,64.7z"/>
		<path fill="#707071" d="M252.1,66.6v-7.9h1.5c0.3,0.4,0.8,1.3,1.7,2.6c0.9,1.3,1.4,2.1,1.6,2.4c0.1,0.1,0.1,0.2,0.3,0.4
			c0.1,0.2,0.2,0.3,0.3,0.4c0-1.2,0-1.9,0-1.9v-4h1.3v7.9h-1.6l-3.6-5.5l-0.3-0.4c0,0.9,0,1.6,0,2v4H252.1z"/>
	</g>
</g>
</svg>
