<?xml version="1.0" encoding="utf-8"?>
<!-- Generator: Adobe Illustrator 18.1.1, SVG Export Plug-In . SVG Version: 6.00 Build 0)  -->
<svg version="1.1" id="Layer_1" xmlns="http://www.w3.org/2000/svg" xmlns:xlink="http://www.w3.org/1999/xlink" x="0px" y="0px"
	 viewBox="0 0 292.3 81.3" enable-background="new 0 0 292.3 81.3" xml:space="preserve">
<g>
	<path fill="#A9CF39" d="M11.4,16.7l-1.8-0.9c-0.3-0.4-0.5-0.9-0.7-1.3c-0.1-0.5-0.2-1-0.1-1.6c0.4-1.5,1.3-2.2,2.8-2.3h47.5
		c1.6,0.3,2.5,1.3,2.8,3.2c-0.1,0.4-0.2,0.8-0.4,1.2c-0.2,0.4-0.4,0.7-0.7,1l-1.6,0.8H11.4z"/>
	<path fill="#BABBBC" d="M11.6,51.9c-0.4-0.1-0.8-0.3-1.1-0.4c-0.4-0.2-0.7-0.4-1-0.8l-0.6-1.1V29.3c0.4-1.4,1.2-2.2,2.6-2.3h43.1
		l1.7,0.9c0.3,0.4,0.5,0.9,0.7,1.3c0.2,0.4,0.2,1,0.1,1.6l-0.8,1.4c-0.3,0.2-0.6,0.4-0.9,0.5c-0.3,0.2-0.7,0.3-1.1,0.4H14.9v16.4
		c-0.2,0.4-0.5,0.8-0.7,1.2c-0.3,0.4-0.6,0.6-1,0.9L11.6,51.9z"/>
	<path fill="#A9CF39" d="M76.6,51.9c-0.9-0.1-1.8-0.3-2.6-0.6c-0.8-0.3-1.6-0.6-2.4-1s-1.5-0.9-2.3-1.6c-0.5-0.5-0.9-1.1-1.3-1.7
		c-0.4-0.6-0.7-1.3-0.8-1.9c-0.2-0.7-0.4-1.4-0.6-2.1V20c0.4-1,0.9-1.7,1.4-1.9c0.5-0.3,0.9-0.4,1.3-0.4s0.7,0,1,0
		c1.3,0.3,2.1,1.1,2.3,2.3v21.9c0.1,0.3,0.1,0.7,0.2,1.1s0.2,0.7,0.5,1c0.3,0.3,0.5,0.5,0.8,0.8l2.2,0.9h24.2
		c0.3-0.1,0.6-0.1,0.9-0.2c0.3-0.1,0.6-0.2,0.8-0.5c0.3-0.3,0.5-0.5,0.7-0.7c0.2-0.3,0.4-0.6,0.5-0.8c0.2-0.3,0.3-0.6,0.3-0.9
		s0.1-0.7,0.3-1V19.8c0.2-0.2,0.3-0.4,0.4-0.8c0.1-0.3,0.4-0.6,0.8-0.9c0.4-0.3,1.2-0.5,2.5-0.5c1.4,0.4,2.1,1.2,2.3,2.3v22.5
		c-0.2,0.9-0.4,1.8-0.7,2.7c-0.3,0.9-0.7,1.7-1.2,2.5c-0.5,0.8-1.2,1.5-2,2.1c-0.5,0.4-1.1,0.8-1.7,1.1c-0.6,0.3-1.3,0.5-2,0.7
		c-0.7,0.2-1.4,0.3-2.1,0.4H76.6z"/>
	<path fill="#A9CF39" d="M120,51.9c-0.2-0.1-0.6-0.2-1.1-0.4c-0.5-0.1-1.1-0.8-1.6-2V20c0.2-1,0.5-1.6,0.8-1.7
		c0.3-0.2,0.7-0.3,1-0.4c0.3-0.1,0.7-0.2,1.2-0.2c0.5,0,1.2,0.2,2.1,0.8l32.5,24.3l-0.1-22.8c0.2-0.2,0.3-0.4,0.4-0.8
		c0.1-0.3,0.3-0.6,0.6-0.8c0.3-0.2,0.5-0.4,0.8-0.5c0.3-0.1,0.9-0.2,1.9-0.1c1.3,0.4,2.1,1.2,2.3,2.3v29.5c-0.8,2.5-2.4,3-4.8,1.6
		l-32.7-24.4v22.9C122.8,51.1,121.7,51.9,120,51.9z"/>
	<path fill="#A9CF39" d="M171.2,51.9c-0.2-0.1-0.5-0.2-0.8-0.2c-0.3,0-0.6-0.2-1-0.4s-0.7-0.8-1-1.7V20c0.3-1.4,1.1-2.2,2.3-2.3
		h32.1c0.8,0.2,1.6,0.5,2.5,0.7c0.8,0.3,1.6,0.6,2.3,1.1c0.7,0.5,1.4,1.1,2,1.8c0.4,0.5,0.8,1.1,1.1,1.6c0.3,0.6,0.6,1.2,0.8,1.8
		c0.2,0.6,0.4,1.2,0.5,1.8v16c-0.2,0.9-0.4,1.8-0.7,2.7c-0.3,0.9-0.7,1.7-1.2,2.5c-0.5,0.8-1.2,1.5-2,2.1c-0.5,0.4-1.1,0.8-1.7,1.1
		c-0.6,0.3-1.3,0.5-2,0.7c-0.7,0.2-1.4,0.3-2.1,0.4H171.2z M204.1,45.1c0.4-0.3,0.8-0.7,1-1c0.3-0.4,0.4-0.8,0.5-1.3
		c0.1-0.5,0.2-0.9,0.3-1.3V27.9c-0.1-0.3-0.2-0.7-0.3-1c-0.1-0.4-0.2-0.7-0.3-1.1c-0.2-0.4-0.4-0.6-0.6-0.8
		c-0.3-0.2-0.6-0.4-0.9-0.6c-0.3-0.2-0.6-0.3-0.9-0.4s-0.7-0.1-1-0.2h-27.4v22h27.9L204.1,45.1z"/>
	<path fill="#B9BBBD" d="M222.4,51.9c-0.4-0.1-0.8-0.3-1.2-0.5c-0.4-0.2-0.8-0.5-1.1-0.9l-0.5-0.9V12.8l0.8-1.3
		c0.3-0.3,0.7-0.5,1.2-0.7c0.5-0.2,0.9-0.2,1.3-0.2c0.4,0.1,0.8,0.2,1.2,0.4c0.4,0.2,0.7,0.4,1,0.9l0.6,1.2v36.4
		C225.3,51,224.2,51.8,222.4,51.9z"/>
	<path fill="#B9BBBD" d="M257.8,51.9c-0.9-0.1-1.6-0.5-2.2-1.2l-0.6-1.2V16.7h-20.8c-1.2-0.4-2.1-1.1-2.6-2.3v-1.6
		c0.7-1.4,1.6-2.2,2.8-2.3h47.5c1.7,0.3,2.6,1.4,2.8,3.2c-0.1,0.8-0.4,1.5-1.1,2.2l-1.6,0.8H261v32.9l-0.8,1.4
		C259.5,51.6,258.7,51.9,257.8,51.9z"/>
	<text transform="matrix(1 0 0 1 7.8058 72.0668)" fill="#707071" font-family="'Oxygen-Bold'" font-size="11" letter-spacing="6">ADVANCING INNOVATION</text>
</g>
</svg>
