<?xml version="1.0" encoding="utf-8"?>
<!-- Generator: Adobe Illustrator 18.1.1, SVG Export Plug-In . SVG Version: 6.00 Build 0)  -->
<svg version="1.1" id="Layer_1" xmlns="http://www.w3.org/2000/svg" xmlns:xlink="http://www.w3.org/1999/xlink" x="0px" y="0px"
	 viewBox="0 0 292.3 81.3" enable-background="new 0 0 292.3 81.3" xml:space="preserve">
<g>
	<path fill="#A9CF39" d="M10.5,16.3l-1.8-0.9C8.4,15,8.1,14.5,8,14c-0.1-0.5-0.2-1-0.1-1.6c0.4-1.5,1.3-2.2,2.8-2.3h47.5
		c1.6,0.3,2.5,1.3,2.8,3.2c-0.1,0.4-0.2,0.8-0.4,1.2c-0.2,0.4-0.4,0.7-0.7,1l-1.6,0.8H10.5z"/>
	<path fill="#BABBBC" d="M10.7,51.5c-0.4-0.1-0.8-0.3-1.1-0.4c-0.4-0.2-0.7-0.4-1-0.8l-0.6-1.1V28.9c0.4-1.4,1.2-2.2,2.6-2.3h43.1
		l1.7,0.9c0.3,0.4,0.5,0.9,0.7,1.3c0.2,0.4,0.2,1,0.1,1.6l-0.8,1.4c-0.3,0.2-0.6,0.4-0.9,0.5c-0.3,0.2-0.7,0.3-1.1,0.4H14v16.4
		c-0.2,0.4-0.5,0.8-0.7,1.2c-0.3,0.4-0.6,0.6-1,0.9L10.7,51.5z"/>
	<path fill="#A9CF39" d="M75.7,51.5c-0.9-0.1-1.8-0.3-2.6-0.6c-0.8-0.3-1.6-0.6-2.4-1s-1.5-0.9-2.3-1.6c-0.5-0.5-0.9-1.1-1.3-1.7
		c-0.4-0.6-0.7-1.3-0.8-1.9c-0.2-0.7-0.4-1.4-0.6-2.1V19.6c0.4-1,0.9-1.7,1.4-1.9c0.5-0.3,0.9-0.4,1.3-0.4s0.7,0,1,0
		c1.3,0.3,2.1,1.1,2.3,2.3v21.9c0.1,0.3,0.1,0.7,0.2,1.1s0.2,0.7,0.5,1c0.3,0.3,0.5,0.5,0.8,0.8l2.2,0.9h24.2
		c0.3-0.1,0.6-0.1,0.9-0.2c0.3-0.1,0.6-0.2,0.8-0.5c0.3-0.3,0.5-0.5,0.7-0.7c0.2-0.3,0.4-0.6,0.5-0.8c0.2-0.3,0.3-0.6,0.3-0.9
		s0.1-0.7,0.3-1V19.4c0.2-0.2,0.3-0.4,0.4-0.8c0.1-0.3,0.4-0.6,0.8-0.9c0.4-0.3,1.2-0.5,2.5-0.5c1.4,0.4,2.1,1.2,2.3,2.3v22.5
		c-0.2,0.9-0.4,1.8-0.7,2.7c-0.3,0.9-0.7,1.7-1.2,2.5c-0.5,0.8-1.2,1.5-2,2.1c-0.5,0.4-1.1,0.8-1.7,1.1c-0.6,0.3-1.3,0.5-2,0.7
		c-0.7,0.2-1.4,0.3-2.1,0.4H75.7z"/>
	<path fill="#A9CF39" d="M119,51.5c-0.2-0.1-0.6-0.2-1.1-0.4c-0.5-0.1-1.1-0.8-1.6-2V19.6c0.2-1,0.5-1.6,0.8-1.7
		c0.3-0.2,0.7-0.3,1-0.4c0.3-0.1,0.7-0.2,1.2-0.2c0.5,0,1.2,0.2,2.1,0.8l32.5,24.3l-0.1-22.8c0.2-0.2,0.3-0.4,0.4-0.8
		c0.1-0.3,0.3-0.6,0.6-0.8c0.3-0.2,0.5-0.4,0.8-0.5c0.3-0.1,0.9-0.2,1.9-0.1c1.3,0.4,2.1,1.2,2.3,2.3V49c-0.8,2.5-2.4,3-4.8,1.6
		l-32.7-24.4v22.9C121.9,50.7,120.8,51.5,119,51.5z"/>
	<path fill="#A9CF39" d="M170.3,51.5c-0.2-0.1-0.5-0.2-0.8-0.2c-0.3,0-0.6-0.2-1-0.4s-0.7-0.8-1-1.7V19.6c0.3-1.4,1.1-2.2,2.3-2.3
		h32.1c0.8,0.2,1.6,0.5,2.5,0.7c0.8,0.3,1.6,0.6,2.3,1.1c0.7,0.5,1.4,1.1,2,1.8c0.4,0.5,0.8,1.1,1.1,1.6c0.3,0.6,0.6,1.2,0.8,1.8
		c0.2,0.6,0.4,1.2,0.5,1.8v16c-0.2,0.9-0.4,1.8-0.7,2.7c-0.3,0.9-0.7,1.7-1.2,2.5c-0.5,0.8-1.2,1.5-2,2.1c-0.5,0.4-1.1,0.8-1.7,1.1
		c-0.6,0.3-1.3,0.5-2,0.7c-0.7,0.2-1.4,0.3-2.1,0.4H170.3z M203.1,44.7c0.4-0.3,0.8-0.7,1-1c0.3-0.4,0.4-0.8,0.5-1.3
		c0.1-0.5,0.2-0.9,0.3-1.3V27.5c-0.1-0.3-0.2-0.7-0.3-1c-0.1-0.4-0.2-0.7-0.3-1.1c-0.2-0.4-0.4-0.6-0.6-0.8
		c-0.3-0.2-0.6-0.4-0.9-0.6c-0.3-0.2-0.6-0.3-0.9-0.4s-0.7-0.1-1-0.2h-27.4v22h27.9L203.1,44.7z"/>
	<path fill="#B9BBBD" d="M221.5,51.5c-0.4-0.1-0.8-0.3-1.2-0.5c-0.4-0.2-0.8-0.5-1.1-0.9l-0.5-0.9V12.4l0.8-1.3
		c0.3-0.3,0.7-0.5,1.2-0.7c0.5-0.2,0.9-0.2,1.3-0.2c0.4,0.1,0.8,0.2,1.2,0.4c0.4,0.2,0.7,0.4,1,0.9l0.6,1.2V49
		C224.3,50.5,223.2,51.4,221.5,51.5z"/>
	<path fill="#B9BBBD" d="M256.9,51.5c-0.9-0.1-1.6-0.5-2.2-1.2l-0.6-1.2V16.3h-20.8c-1.2-0.4-2.1-1.1-2.6-2.3v-1.6
		c0.7-1.4,1.6-2.2,2.8-2.3h47.5c1.7,0.3,2.6,1.4,2.8,3.2c-0.1,0.8-0.4,1.5-1.1,2.2l-1.6,0.8h-20.9v32.9l-0.8,1.4
		C258.6,51.2,257.8,51.5,256.9,51.5z"/>
	<text transform="matrix(1 0 0 1 6.8825 71.6497)" fill="#707071" font-family="'Oxygen-Bold'" font-size="11" letter-spacing="5">BRINGING IDEAS TO LIGHT</text>
</g>
</svg>
