<?xml version="1.0" encoding="utf-8"?>
<!-- Generator: Adobe Illustrator 18.1.1, SVG Export Plug-In . SVG Version: 6.00 Build 0)  -->
<svg version="1.1" id="Layer_1" xmlns="http://www.w3.org/2000/svg" xmlns:xlink="http://www.w3.org/1999/xlink" x="0px" y="0px"
	 viewBox="0 0 571.5 157.5" enable-background="new 0 0 571.5 157.5" xml:space="preserve">
<path fill="#A8CF3A" d="M540.4,149.9H30.1c-13.2,0-24-10.8-24-24V32.3c0-13.2,10.8-24,24-24h510.3c13.2,0,24,10.8,24,24v93.7
	C564.4,139.1,553.6,149.9,540.4,149.9z"/>
<g>
	<path fill="#FFFFFF" d="M65.5,55.5L62.6,54c-0.5-0.6-0.8-1.5-1.1-2.1c-0.2-0.8-0.3-1.6-0.2-2.6c0.6-2.4,2.1-3.6,4.5-3.7H143
		c2.6,0.5,4.1,2.1,4.5,5.2c-0.2,0.6-0.3,1.3-0.6,1.9c-0.3,0.6-0.6,1.1-1.1,1.6l-2.6,1.3H65.5V55.5z"/>
	<path fill="#FFFFFF" d="M65.8,112.6c-0.6-0.2-1.3-0.5-1.8-0.6c-0.6-0.3-1.1-0.6-1.6-1.3l-1-1.8v-33c0.6-2.3,1.9-3.6,4.2-3.7h70
		l2.8,1.5c0.5,0.6,0.8,1.5,1.1,2.1c0.3,0.6,0.3,1.6,0.2,2.6l-1.3,2.3c-0.5,0.3-1,0.6-1.5,0.8c-0.5,0.3-1.1,0.5-1.8,0.6h-64v26.6
		c-0.3,0.6-0.8,1.3-1.1,1.9c-0.5,0.6-1,1-1.6,1.5L65.8,112.6z"/>
	<path fill="#FFFFFF" d="M171.4,112.6c-1.5-0.2-2.9-0.5-4.2-1c-1.3-0.5-2.6-1-3.9-1.6c-1.3-0.6-2.4-1.5-3.7-2.6
		c-0.8-0.8-1.5-1.8-2.1-2.8c-0.6-1-1.1-2.1-1.3-3.1c-0.3-1.1-0.6-2.3-1-3.4V60.8c0.6-1.6,1.5-2.8,2.3-3.1c0.8-0.5,1.5-0.6,2.1-0.6
		c0.6,0,1.1,0,1.6,0c2.1,0.5,3.4,1.8,3.7,3.7v35.6c0.2,0.5,0.2,1.1,0.3,1.8c0.2,0.6,0.3,1.1,0.8,1.6c0.5,0.5,0.8,0.8,1.3,1.3
		l3.6,1.5h39.3c0.5-0.2,1-0.2,1.5-0.3c0.5-0.2,1-0.3,1.3-0.8c0.5-0.5,0.8-0.8,1.1-1.1c0.3-0.5,0.6-1,0.8-1.3c0.3-0.5,0.5-1,0.5-1.5
		c0-0.5,0.2-1.1,0.5-1.6V60.5c0.3-0.3,0.5-0.6,0.6-1.3c0.2-0.5,0.6-1,1.3-1.5s1.9-0.8,4.1-0.8c2.3,0.6,3.4,1.9,3.7,3.7v36.5
		c-0.3,1.5-0.6,2.9-1.1,4.4c-0.5,1.5-1.1,2.8-1.9,4.1c-0.8,1.3-1.9,2.4-3.2,3.4c-0.8,0.6-1.8,1.3-2.8,1.8c-1,0.5-2.1,0.8-3.2,1.1
		c-1.1,0.3-2.3,0.5-3.4,0.6H171.4z"/>
	<path fill="#FFFFFF" d="M241.9,112.6c-0.3-0.2-1-0.3-1.8-0.6c-0.8-0.2-1.8-1.3-2.6-3.2V60.8c0.3-1.6,0.8-2.6,1.3-2.8
		c0.5-0.3,1.1-0.5,1.6-0.6c0.5-0.2,1.1-0.3,1.9-0.3c0.8,0,1.9,0.3,3.4,1.3l52.8,39.5l-0.2-37c0.3-0.3,0.5-0.6,0.6-1.3
		c0.2-0.5,0.5-1,1-1.3c0.5-0.3,0.8-0.6,1.3-0.8c0.5-0.2,1.5-0.3,3.1-0.2c2.1,0.6,3.4,1.9,3.7,3.7v47.9c-1.3,4.1-3.9,4.9-7.8,2.6
		l-53.1-39.6v37.2C246.4,111.3,244.6,112.6,241.9,112.6z"/>
	<path fill="#FFFFFF" d="M325,112.6c-0.3-0.2-0.8-0.3-1.3-0.3c-0.5,0-1-0.3-1.6-0.6s-1.1-1.3-1.6-2.8V60.8c0.5-2.3,1.8-3.6,3.7-3.7
		h52.1c1.3,0.3,2.6,0.8,4.1,1.1c1.3,0.5,2.6,1,3.7,1.8c1.1,0.8,2.3,1.8,3.2,2.9c0.6,0.8,1.3,1.8,1.8,2.6c0.5,1,1,1.9,1.3,2.9
		c0.3,1,0.6,1.9,0.8,2.9v26c-0.3,1.5-0.6,2.9-1.1,4.4c-0.5,1.5-1.1,2.8-1.9,4.1s-1.9,2.4-3.2,3.4c-0.8,0.6-1.8,1.3-2.8,1.8
		c-1,0.5-2.1,0.8-3.2,1.1c-1.1,0.3-2.3,0.5-3.4,0.6H325V112.6z M378.4,101.6c0.6-0.5,1.3-1.1,1.6-1.6c0.5-0.6,0.6-1.3,0.8-2.1
		c0.2-0.8,0.3-1.5,0.5-2.1V73.7c-0.2-0.5-0.3-1.1-0.5-1.6c-0.2-0.6-0.3-1.1-0.5-1.8c-0.3-0.6-0.6-1-1-1.3c-0.5-0.3-1-0.6-1.5-1
		c-0.5-0.3-1-0.5-1.5-0.6c-0.5-0.2-1.1-0.2-1.6-0.3h-44.5v35.7h45.3L378.4,101.6z"/>
	<path fill="#FFFFFF" d="M408.1,112.6c-0.6-0.2-1.3-0.5-1.9-0.8s-1.3-0.8-1.8-1.5l-0.8-1.5V49.1l1.3-2.1c0.5-0.5,1.1-0.8,1.9-1.1
		c0.8-0.3,1.5-0.3,2.1-0.3c0.6,0.2,1.3,0.3,1.9,0.6c0.6,0.3,1.1,0.6,1.6,1.5l1,1.9v59.1C412.8,111.2,411.1,112.5,408.1,112.6z"/>
	<path fill="#FFFFFF" d="M465.6,112.6c-1.5-0.2-2.6-0.8-3.6-1.9l-1-1.9V55.5h-33.8c-1.9-0.6-3.4-1.8-4.2-3.7v-2.6
		c1.1-2.3,2.6-3.6,4.5-3.7h77.1c2.8,0.5,4.2,2.3,4.5,5.2c-0.2,1.3-0.6,2.4-1.8,3.6l-2.6,1.3h-34.1v53.4l-1.3,2.3
		C468.4,112.1,467.1,112.6,465.6,112.6z"/>
</g>
</svg>
