<svg width="571.5" height="157.5" xmlns="http://www.w3.org/2000/svg">
 <g>
  <title>Layer 1</title>
  <path id="svg_7" d="m540.400024,149.899994h-510.300024c-13.200001,0 -24,-10.800003 -24,-24.000008v-93.599987c0,-13.199999 10.8,-23.999999 24,-23.999999h510.299963c13.200012,0 24,10.8 24,23.999999v93.700001c0.000061,13.100006 -10.799988,23.899994 -23.999939,23.899994z" fill="#A8CF3A"/>
  <g id="svg_8">
   <path id="svg_9" d="m65.5,55.5l-2.900002,-1.5c-0.5,-0.599998 -0.799999,-1.5 -1.099998,-2.099998c-0.200001,-0.800003 -0.299999,-1.600002 -0.200001,-2.600002c0.600002,-2.399998 2.100002,-3.599998 4.500004,-3.700001h77.199997c2.600006,0.5 4.100006,2.100002 4.5,5.200001c-0.199997,0.600002 -0.300003,1.299999 -0.600006,1.900002c-0.299988,0.599998 -0.599991,1.099998 -1.099991,1.599998l-2.600006,1.299999h-77.699997v-0.099998l0,0z" fill="#FFFFFF"/>
   <path id="svg_10" d="m65.800003,112.599998c-0.600006,-0.199997 -1.300003,-0.5 -1.800003,-0.599998c-0.599998,-0.300003 -1.099998,-0.599998 -1.599998,-1.300003l-1,-1.799995v-33c0.599998,-2.300003 1.899998,-3.599998 4.199997,-3.700005h70.000008l2.799988,1.5c0.5,0.600006 0.800003,1.5 1.100006,2.100006c0.300003,0.599998 0.300003,1.599998 0.199997,2.599998l-1.300003,2.299995c-0.5,0.300003 -1,0.600006 -1.5,0.800003c-0.5,0.300003 -1.099991,0.5 -1.799988,0.599998h-64.000008v26.599998c-0.299995,0.600006 -0.799995,1.300003 -1.099998,1.900002c-0.5,0.599998 -1,1 -1.599998,1.5l-2.599998,0.5z" fill="#FFFFFF"/>
   <path id="svg_11" d="m171.399994,112.599998c-1.5,-0.199997 -2.899994,-0.5 -4.199997,-1c-1.300003,-0.5 -2.599991,-1 -3.899994,-1.599998c-1.300003,-0.599998 -2.400009,-1.5 -3.699997,-2.599998c-0.800003,-0.800003 -1.5,-1.800003 -2.100006,-2.800003c-0.600006,-1 -1.100006,-2.099998 -1.300003,-3.099998c-0.300003,-1.099998 -0.599991,-2.300003 -1,-3.400002v-37.299999c0.600006,-1.599998 1.5,-2.799999 2.300003,-3.099998c0.800003,-0.5 1.5,-0.600002 2.100006,-0.600002c0.599991,0 1.099991,0 1.599991,0c2.100006,0.5 3.400009,1.800003 3.699997,3.700001v35.600002c0.200012,0.5 0.200012,1.099998 0.300003,1.799995c0.199997,0.600006 0.300003,1.100006 0.800003,1.600006c0.5,0.5 0.800003,0.799995 1.300003,1.299995l3.599991,1.5h39.300003c0.5,-0.199997 1,-0.199997 1.5,-0.299995c0.5,-0.200005 1,-0.300003 1.300003,-0.800003c0.5,-0.5 0.800003,-0.800003 1.100006,-1.099998c0.299988,-0.5 0.599991,-1 0.799988,-1.300003c0.300003,-0.5 0.5,-1 0.5,-1.5c0,-0.5 0.200012,-1.099998 0.5,-1.599998v-35.5c0.300003,-0.299999 0.5,-0.599998 0.600006,-1.299999c0.199997,-0.5 0.600006,-1 1.300003,-1.5s1.899994,-0.799999 4.099991,-0.799999c2.300003,0.599998 3.400009,1.899998 3.700012,3.699997v36.5c-0.300003,1.5 -0.600006,2.900002 -1.100006,4.400002c-0.5,1.5 -1.100006,2.800003 -1.899994,4.099998c-0.800003,1.300003 -1.900009,2.400002 -3.200012,3.400002c-0.799988,0.599998 -1.799988,1.300003 -2.799988,1.800003c-1,0.5 -2.100006,0.799995 -3.200012,1.099998c-1.099991,0.299995 -2.299988,0.5 -3.399994,0.599998h-38.600006l0,0.099998z" fill="#FFFFFF"/>
   <path id="svg_12" d="m241.899994,112.599998c-0.300003,-0.199997 -1,-0.299995 -1.800003,-0.599998c-0.800003,-0.199997 -1.800003,-1.300003 -2.600006,-3.199997v-48.000004c0.300003,-1.599998 0.800003,-2.599998 1.300003,-2.799999c0.5,-0.299999 1.100006,-0.5 1.600006,-0.599998c0.5,-0.200001 1.099991,-0.300003 1.899994,-0.300003c0.800003,0 1.900009,0.300003 3.400009,1.300003l52.800003,39.5l-0.200012,-37c0.299988,-0.300003 0.5,-0.600002 0.600006,-1.300003c0.199982,-0.5 0.5,-1 1,-1.299999c0.5,-0.299999 0.799988,-0.599998 1.299988,-0.799999c0.5,-0.200001 1.5,-0.299999 3.100006,-0.200001c2.100006,0.600002 3.399994,1.900002 3.700012,3.700001v47.900002c-1.300018,4.099998 -3.900024,4.900002 -7.800018,2.599998l-53.099991,-39.599998v37.199997c-0.699997,2.200005 -2.499985,3.5 -5.199997,3.5z" fill="#FFFFFF"/>
   <path id="svg_13" d="m325,112.599998c-0.299988,-0.199997 -0.799988,-0.299995 -1.299988,-0.299995c-0.5,0 -1,-0.300003 -1.600006,-0.600006s-1.100006,-1.299995 -1.600006,-2.799995v-48.100002c0.5,-2.299999 1.799988,-3.599998 3.700012,-3.700001h52.099976c1.300018,0.300003 2.600006,0.800003 4.100006,1.100002c1.300018,0.5 2.600006,1 3.700012,1.799999c1.100006,0.799999 2.299988,1.799999 3.199982,2.900002c0.600006,0.799999 1.300018,1.799995 1.800018,2.599998c0.5,1 1,1.900002 1.299988,2.900002c0.300018,1 0.600006,1.900002 0.800018,2.900002v26c-0.300018,1.5 -0.600006,2.899994 -1.100006,4.399994c-0.5,1.5 -1.100006,2.800003 -1.899994,4.100006s-1.900024,2.399994 -3.200012,3.399994c-0.799988,0.600006 -1.799988,1.300003 -2.799988,1.800003c-1,0.5 -2.100006,0.800003 -3.200012,1.099998c-1.100006,0.300003 -2.299988,0.5 -3.399994,0.599998h-50.600006v-0.099998l0,0zm53.399994,-11c0.600006,-0.5 1.300018,-1.099998 1.600006,-1.599998c0.5,-0.599998 0.600006,-1.300003 0.799988,-2.099998c0.200012,-0.800003 0.300018,-1.5 0.5,-2.099998v-22.100006c-0.199982,-0.5 -0.299988,-1.099998 -0.5,-1.599998c-0.199982,-0.599998 -0.299988,-1.099998 -0.5,-1.799995c-0.299988,-0.600006 -0.599976,-1 -1,-1.300003c-0.5,-0.300003 -1,-0.599998 -1.5,-1c-0.5,-0.300003 -1,-0.5 -1.5,-0.599998c-0.5,-0.200005 -1.099976,-0.200005 -1.599976,-0.300003h-44.5v35.700005h45.299988l2.899994,-1.200005z" fill="#FFFFFF"/>
   <path id="svg_14" d="m408.100006,112.599998c-0.600006,-0.199997 -1.299988,-0.5 -1.899994,-0.799995s-1.299988,-0.800003 -1.799988,-1.5l-0.800018,-1.5v-59.700005l1.300018,-2.099998c0.5,-0.5 1.099976,-0.799999 1.899994,-1.099998c0.799988,-0.300003 1.5,-0.300003 2.100006,-0.300003c0.599976,0.200001 1.299988,0.300003 1.899994,0.600002c0.600006,0.299999 1.100006,0.599998 1.600006,1.5l1,1.899998v59.099998c-0.600037,2.5 -2.300018,3.800003 -5.300018,3.900002z" fill="#FFFFFF"/>
   <path id="svg_15" d="m465.600006,112.599998c-1.5,-0.199997 -2.600006,-0.799995 -3.600006,-1.900002l-1,-1.899994v-53.300003h-33.799988c-1.899994,-0.599998 -3.399994,-1.799999 -4.200012,-3.700001v-2.599998c1.100006,-2.299999 2.600006,-3.600002 4.5,-3.700001h77.100006c2.800018,0.5 4.200012,2.299999 4.5,5.200001c-0.199982,1.299999 -0.600006,2.399998 -1.799988,3.599998l-2.600006,1.299999h-34.100006v53.400002l-1.299988,2.300003c-0.900024,0.799995 -2.200012,1.299995 -3.700012,1.299995z" fill="#FFFFFF"/>
  </g>
 </g>
</svg>