<?xml version="1.0" encoding="utf-8"?>
<!-- Generator: Adobe Illustrator 18.1.1, SVG Export Plug-In . SVG Version: 6.00 Build 0)  -->
<svg version="1.1" id="Layer_1" xmlns="http://www.w3.org/2000/svg" xmlns:xlink="http://www.w3.org/1999/xlink" x="0px" y="0px"
	 viewBox="0 0 424 560" enable-background="new 0 0 424 560" xml:space="preserve">
<g>
	<path fill="#AACF37" d="M90.9,59.6l-4.6-13.8c0-3.9,0.7-7.2,2-9.9c1.3-2.6,2.6-5.3,4.6-8.6c11.8-9.2,23.7-10.5,34.2-2.6l273,273
		c8.6,8.6,9.2,18.4,2.6,28.9c-3.3,3.3-6.6,6.6-9.9,8.6c-3.3,2-7.2,3.3-11.8,3.9l-15.8-5.3L90.9,59.6z"/>
	<path fill="#B8BABB" d="M153.4,523.4c-0.7-3.3-0.7-7.2,0-10.5c0.7-3.3,1.3-6.6,2.6-10.5l94.1-94.1L23.8,181.9
		c-1.3-2.6-2-5.9-3.3-8.6c-0.7-3.3-1.3-5.3-2-8.6l3.3-12.5c2.6-3.9,6.6-6.6,9.9-8.6c3.3-2,7.2-3.3,11.8-3.9l15.1,4.6l248,248
		c7.2,8.6,8.6,17.8,2,28.3L192.2,537.2l-9.9,3.3c-3.9,0-7.9,0-10.5-1.3c-3.3-0.7-6.6-2.6-9.2-3.9L153.4,523.4z"/>
</g>
</svg>
