<?xml version="1.0" encoding="utf-8"?>
<!-- Generator: Adobe Illustrator 18.1.1, SVG Export Plug-In . SVG Version: 6.00 Build 0)  -->
<svg version="1.1" id="Layer_1" xmlns="http://www.w3.org/2000/svg" xmlns:xlink="http://www.w3.org/1999/xlink" x="0px" y="0px"
	 viewBox="-455 257 48 48" enable-background="new -455 257 48 48" xml:space="preserve">
<path fill="#FFFFFF" d="M-422,269v23c0,4.4-3.6,8-8,8s-8-3.6-8-8v-25c0-2.8,2.2-5,5-5s5,2.2,5,5v21c0,1.1-0.9,2-2,2s-2-0.9-2-2v-19
	h-3v19c0,2.8,2.2,5,5,5s5-2.2,5-5v-21c0-4.4-3.6-8-8-8s-8,3.6-8,8v25c0,6.1,4.9,11,11,11s11-4.9,11-11v-23H-422z"/>
<path fill="none" d="M-455,257h48v48h-48V257z"/>
</svg>
