<?xml version="1.0" encoding="utf-8"?>
<!-- Generator: Adobe Illustrator 18.1.1, SVG Export Plug-In . SVG Version: 6.00 Build 0)  -->
<svg version="1.1" id="Layer_1" xmlns="http://www.w3.org/2000/svg" xmlns:xlink="http://www.w3.org/1999/xlink" x="0px" y="0px"
	 viewBox="-455 257 48 48" enable-background="new -455 257 48 48" xml:space="preserve">
<path fill="#FFFFFF" d="M-440,293c-6.1,0-11-4.9-11-11s4.9-11,11-11h21c4.4,0,8,3.6,8,8s-3.6,8-8,8h-17c-2.8,0-5-2.2-5-5s2.2-5,5-5
	h15v3h-15c-1.1,0-2,0.9-2,2s0.9,2,2,2h17c2.8,0,5-2.2,5-5s-2.2-5-5-5h-21c-4.4,0-8,3.6-8,8s3.6,8,8,8h19v3H-440z"/>
<path fill="none" d="M-455,257h48v48h-48V257z"/>
</svg>
