<?xml version="1.0" encoding="utf-8"?>
<!-- Generator: Adobe Illustrator 18.1.1, SVG Export Plug-In . SVG Version: 6.00 Build 0)  -->
<svg version="1.1" id="Layer_1" xmlns="http://www.w3.org/2000/svg" xmlns:xlink="http://www.w3.org/1999/xlink" x="0px" y="0px"
	 viewBox="-293 385 24 24" enable-background="new -293 385 24 24" xml:space="preserve">
<path d="M-289.1,397c0-1.7,1.4-3.1,3.1-3.1h4V392h-4c-2.8,0-5,2.2-5,5s2.2,5,5,5h4v-1.9h-4C-287.7,400.1-289.1,398.7-289.1,397z
	 M-285,398h8v-2h-8V398z M-276,392h-4v1.9h4c1.7,0,3.1,1.4,3.1,3.1s-1.4,3.1-3.1,3.1h-4v1.9h4c2.8,0,5-2.2,5-5S-273.2,392-276,392z"
	/>
</svg>
