<?xml version="1.0" encoding="utf-8"?>
<!-- Generator: Adobe Illustrator 18.1.1, SVG Export Plug-In . SVG Version: 6.00 Build 0)  -->
<svg version="1.1" id="Layer_1" xmlns="http://www.w3.org/2000/svg" xmlns:xlink="http://www.w3.org/1999/xlink" x="0px" y="0px"
	 viewBox="-455 257 48 48" enable-background="new -455 257 48 48" xml:space="preserve">
<path fill="#FFFFFF" d="M-449,295l3,3l10-10v-1.6l0.5-0.5c2.3,2,5.2,3.1,8.5,3.1c7.2,0,13-5.8,13-13s-5.8-13-13-13
	c-7.2,0-13,5.8-13,13c0,3.2,1.2,6.2,3.1,8.5l-0.5,0.5h-1.6C-439,285-449,295-449,295z M-436,276c0-5,4-9,9-9s9,4,9,9s-4,9-9,9
	S-436,281-436,276z"/>
<path fill="none" d="M-455,257h48v48h-48V257z"/>
</svg>
