<?xml version="1.0" encoding="utf-8"?>
<!-- Generator: Adobe Illustrator 18.1.1, SVG Export Plug-In . SVG Version: 6.00 Build 0)  -->
<svg version="1.1" id="Layer_1" xmlns="http://www.w3.org/2000/svg" xmlns:xlink="http://www.w3.org/1999/xlink" x="0px" y="0px"
	 viewBox="-455 257 48 48" enable-background="new -455 257 48 48" xml:space="preserve">
<path fill="none" d="M-455,257h48v48h-48V257z"/>
<path fill="#FFFFFF" d="M-419,289.2c-1.5,0-2.9,0.6-3.9,1.5l-14.2-8.3c0.1-0.4,0.2-0.9,0.2-1.4s-0.1-1-0.2-1.4l14.1-8.2
	c1.1,1,2.5,1.6,4.1,1.6c3.3,0,6-2.7,6-6s-2.7-6-6-6s-6,2.7-6,6c0,0.5,0.1,1,0.2,1.4l-14.1,8.2c-1.1-1-2.5-1.6-4.1-1.6
	c-3.3,0-6,2.7-6,6s2.7,6,6,6c1.6,0,3-0.6,4.1-1.6l14.2,8.3c-0.1,0.4-0.2,0.9-0.2,1.3c0,3.2,2.6,5.8,5.8,5.8s5.8-2.6,5.8-5.8
	S-415.8,289.2-419,289.2z"/>
</svg>
