<?xml version="1.0" encoding="utf-8"?>
<!-- Generator: Adobe Illustrator 18.1.1, SVG Export Plug-In . SVG Version: 6.00 Build 0)  -->
<svg version="1.1" id="Layer_1" xmlns="http://www.w3.org/2000/svg" xmlns:xlink="http://www.w3.org/1999/xlink" x="0px" y="0px"
	 viewBox="0 0 58.2 151.6" enable-background="new 0 0 58.2 151.6" xml:space="preserve">
<path d="M29.2,81.7c6.5,0,13,0.1,19.5,0c2.8-0.1,4.4,0.6,4.2,3.9c-0.3,5.3-0.3,10.6-0.5,15.9c0,0.7-0.3,1.3-0.5,1.9
	C48.8,114.1,38,119.1,22.6,117c-10.4-1.4-17.1-8.7-17.3-19.2c-0.1-3.8,0.1-7.7-0.1-11.5c-0.2-3.4,0.9-4.8,4.5-4.6
	C16.2,81.9,22.7,81.7,29.2,81.7z"/>
<path fill="#A9CF38" d="M8.7,52.8c-1-0.8-3-1.7-3.4-3c-0.3-1.3,1-3.2,2-4.4c0.6-0.8,2.1-1,3.2-1.3C22.3,41,34,38,45.7,34.9
	c2.8-0.7,5.5-1.3,6.7,2.1c1.2,3.6-1.6,4.7-4.3,5.4c-12.4,3.3-24.7,6.6-37.1,9.9C10.5,52.3,10,52.4,8.7,52.8z"/>
<path fill="#A9CF38" d="M8.5,27c-0.9-0.7-3-1.5-3.1-2.6c-0.2-1.4,1.1-3.1,2-4.5c0.4-0.6,1.5-0.7,2.3-0.9c12.1-3.2,24.1-6.4,36.2-9.6
	c2.5-0.7,5.7-1.4,6.6,2.2c0.9,3.5-1.8,4.5-4.6,5.2c-11.9,3.1-23.8,6.2-35.7,9.4C11.2,26.5,10.2,26.7,8.5,27z"/>
<path fill="#A9CF38" d="M8.3,65c-0.7-0.7-3.2-2.2-3-3.1C5.6,60.2,7.4,58,9,57.5c9.1-2.7,18.3-5,27.5-7.4c3.7-1,7.4-2.3,11.1-2.7
	c1.5-0.2,3.2,1.4,4.9,2.2c-0.9,1.7-1.5,4.6-2.8,4.9c-13,3.7-26,7-39.1,10.4C10.2,64.9,9.9,64.9,8.3,65z"/>
<path fill="#A9CF38" d="M8.5,40.2c-1-1.1-3.4-2.5-3.3-3.6c0.2-1.6,1.9-3.9,3.5-4.4c8.7-2.7,17.6-4.9,26.5-7.2
	c4.3-1.1,8.7-2.4,13.1-3.1c1.3-0.2,3.7,1.3,4,2.5c0.3,1.2-0.9,4-2,4.3C36.8,32.6,23.1,36.2,8.5,40.2z"/>
<path fill="#A9CF38" d="M39.3,6.6c-9.7,2.5-19.4,5.2-29.2,7.4c-1.4,0.3-3.4-1.7-5.1-2.6c1-1.5,1.6-3.6,3-4.4
	c1.7-1.1,4.1-1.6,6.2-1.6c8.3-0.2,16.5-0.1,24.8-0.1C39.2,5.7,39.3,6.1,39.3,6.6z"/>
<path fill="#A9CF38" d="M36,69.8c-0.1-6.7,7.2-12.3,13.8-10.5c1.1,0.3,2.6,2,2.6,3c0,1.4-1.1,3.6-2.2,3.9c-4.1,1.2-6.2,3.2-5.8,7.8
	c0.1,0.8-2.4,2.6-3.7,2.5c-1.6,0-3.6-1.1-4.6-2.4C35.4,73.3,36,71.3,36,69.8z"/>
<path d="M29.6,119.7c3.5,0,7-0.3,10.4,0.1c1.5,0.2,2.7,2,4,3.1c-1.2,1.1-2.4,3-3.7,3c-7.6,0.3-15.2,0.3-22.8,0
	c-1.3-0.1-2.6-1.9-3.9-2.9c1.4-1.1,2.6-3,4.1-3.2C21.7,119.4,25.7,119.7,29.6,119.7z"/>
<path d="M29.5,129.7c3.7,0,7.4-0.3,11,0.1c1.3,0.2,2.4,2,3.6,3.1c-1.1,1-2.1,2.9-3.3,3c-7.8,0.3-15.7,0.3-23.5,0
	c-1.3,0-2.4-2.1-3.7-3.2c1.3-1,2.5-2.7,3.9-2.8C21.5,129.4,25.5,129.7,29.5,129.7z"/>
<path fill="#A9CF38" d="M16.8,67.8c-1,3.6,2.5,7.9-3.3,8.8c-2.1,0.3-4.3,0.4-4.6-2.9C8.4,68.2,12.3,68.4,16.8,67.8z"/>
<path d="M22.9,138.9c4,0,7.7,0,11.6,0c0.2,3.9-2.4,5.7-5.3,6C25.8,145.2,23.7,142.8,22.9,138.9z"/>
<g>
	<path fill="#AAD037" d="M18.6,92.2l-0.8-0.4c-0.1-0.2-0.2-0.4-0.3-0.6c-0.1-0.2-0.1-0.4,0-0.7c0.2-0.7,0.6-1,1.2-1h20.9
		c0.7,0.1,1.1,0.6,1.2,1.4c0,0.2-0.1,0.4-0.2,0.5c-0.1,0.2-0.2,0.3-0.3,0.4l-0.7,0.3H18.6z"/>
	<path fill="#BABBBC" d="M18.6,107.6c-0.2-0.1-0.3-0.1-0.5-0.2c-0.2-0.1-0.3-0.2-0.5-0.4l-0.3-0.5v-8.9c0.2-0.6,0.5-1,1.1-1h19
		l0.7,0.4c0.1,0.2,0.2,0.4,0.3,0.6c0.1,0.2,0.1,0.4,0,0.7L38.3,99c-0.1,0.1-0.3,0.2-0.4,0.2c-0.1,0.1-0.3,0.1-0.5,0.2H20.1v7.2
		c-0.1,0.2-0.2,0.4-0.3,0.5c-0.1,0.2-0.3,0.3-0.4,0.4L18.6,107.6z"/>
</g>
</svg>
